<svg xmlns="http://www.w3.org/2000/svg" viewBox="0 0 184.73 33.94"><defs><style>.cls-1{fill:#fff;}</style></defs><g id="Camada_2" data-name="Camada 2"><g id="Camada_1-2" data-name="Camada 1"><path class="cls-1" d="M15.71,16.1A3.88,3.88,0,0,0,14.54,13,10.76,10.76,0,0,0,10,11.26v5.08h5.47A.21.21,0,0,0,15.71,16.1Z"/><path class="cls-1" d="M19,4.53H15.56V7.58H19V19H.55v-.54H15.48c.15,0,.23-.16.23-.32v-1a.21.21,0,0,0-.23-.24H.55v-.54H9.3V11.1H9.22c-.78-.16-1.64-.31-2.42-.55a2.28,2.28,0,0,1-.16.71A10,10,0,0,1,6.1,12.9a2,2,0,0,1-2,1.09,3.85,3.85,0,0,1-1.64-.39A7.39,7.39,0,0,1,.55,12.43v-1l.08.08.23.23A5.32,5.32,0,0,0,2.74,13a7.87,7.87,0,0,0,1.32.39,1.39,1.39,0,0,0,1.41-.86A5.15,5.15,0,0,0,6,11.1a2.1,2.1,0,0,0,.08-.7,14,14,0,0,1-1.57-.55l-.78,1.33c-.23.39-.78,0-.55-.39l.71-1.18c-.24-.07-.55-.23-.78-.31l-.79,1c-.31.39-.85,0-.54-.47L2.58,9a6.68,6.68,0,0,1-2-1.88V.55H19ZM0,19.62H19.62V0H0Z"/><polygon class="cls-1" points="14.93 9.69 14.93 5.63 14.93 1.33 12.98 1.33 12.98 3.52 10.79 5.63 10.79 10.32 14.93 10.32 14.93 9.69"/><path class="cls-1" d="M1.39,24.19a1.35,1.35,0,0,1-.5-.09,1.09,1.09,0,0,1-.4-.25,1.31,1.31,0,0,1-.27-.38A1.28,1.28,0,0,1,.13,23a1.21,1.21,0,0,1,.09-.48,1.19,1.19,0,0,1,.27-.38,1,1,0,0,1,.4-.25,1.39,1.39,0,0,1,.5-.09,1.38,1.38,0,0,1,.55.1,1,1,0,0,1,.41.31L2,22.52a.86.86,0,0,0-.26-.21.88.88,0,0,0-.32-.07.73.73,0,0,0-.3.06.75.75,0,0,0-.24.15,1,1,0,0,0-.15.24.78.78,0,0,0,0,.6,1,1,0,0,0,.15.24,1,1,0,0,0,.24.15.73.73,0,0,0,.3.06.72.72,0,0,0,.32-.08.7.7,0,0,0,.26-.2l.35.32a1.12,1.12,0,0,1-.41.3A1.23,1.23,0,0,1,1.39,24.19Z"/><path class="cls-1" d="M3.52,24.18a1,1,0,0,1-.5-.12.92.92,0,0,1-.35-1.28A.84.84,0,0,1,3,22.46a1,1,0,0,1,.5-.12,1.07,1.07,0,0,1,.51.12.89.89,0,0,1,.47.8.81.81,0,0,1-.13.47.9.9,0,0,1-.34.33A1.07,1.07,0,0,1,3.52,24.18Zm0-.43a.41.41,0,0,0,.23-.06.33.33,0,0,0,.16-.17A.44.44,0,0,0,4,23.26.47.47,0,0,0,3.91,23a.44.44,0,0,0-.16-.17.52.52,0,0,0-.23-.05.59.59,0,0,0-.23.05.44.44,0,0,0-.16.17.47.47,0,0,0-.07.27.44.44,0,0,0,.07.26.33.33,0,0,0,.16.17A.44.44,0,0,0,3.52,23.75Z"/><path class="cls-1" d="M7.13,22.34a.92.92,0,0,1,.38.08.72.72,0,0,1,.26.26,1,1,0,0,1,.09.45v1H7.34v-.94a.47.47,0,0,0-.09-.32.3.3,0,0,0-.24-.1.36.36,0,0,0-.21.05.29.29,0,0,0-.14.15.67.67,0,0,0,0,.26v.9H6.1v-.94A.47.47,0,0,0,6,22.89a.3.3,0,0,0-.25-.1.36.36,0,0,0-.21.05.34.34,0,0,0-.14.15.67.67,0,0,0,0,.26v.9H4.85V22.37h.49v.48l-.09-.14a.64.64,0,0,1,.26-.28.8.8,0,0,1,.39-.09.77.77,0,0,1,.43.12.63.63,0,0,1,.24.38l-.18-.05a.83.83,0,0,1,.29-.33A.84.84,0,0,1,7.13,22.34Z"/><path class="cls-1" d="M8.33,24.79V22.37h.49v.89l0,.53v1Zm1.05-.61a.81.81,0,0,1-.39-.1.69.69,0,0,1-.27-.31,1.23,1.23,0,0,1-.09-.51,1.31,1.31,0,0,1,.09-.52.64.64,0,0,1,.26-.3.74.74,0,0,1,.4-.1.94.94,0,0,1,.45.11.89.89,0,0,1,.32.32,1,1,0,0,1,.12.49.9.9,0,0,1-.12.48.76.76,0,0,1-.32.32A.84.84,0,0,1,9.38,24.18Zm-.09-.43a.41.41,0,0,0,.23-.06.46.46,0,0,0,.17-.17.53.53,0,0,0,.06-.26A.57.57,0,0,0,9.69,23a.55.55,0,0,0-.17-.17.52.52,0,0,0-.23-.05.59.59,0,0,0-.23.05A.44.44,0,0,0,8.9,23a.57.57,0,0,0-.07.27.53.53,0,0,0,.07.26.38.38,0,0,0,.16.17A.46.46,0,0,0,9.29,23.75Z"/><path class="cls-1" d="M11.46,24.18a1.06,1.06,0,0,1-.5-.12.93.93,0,0,1-.35-.33.94.94,0,0,1-.12-.47,1,1,0,0,1,.12-.48.9.9,0,0,1,.35-.32,1.06,1.06,0,0,1,.5-.12,1.07,1.07,0,0,1,.51.12.9.9,0,0,1,.35.32,1,1,0,0,1,.12.48.89.89,0,0,1-.12.47.93.93,0,0,1-.35.33A1.07,1.07,0,0,1,11.46,24.18Zm0-.43a.48.48,0,0,0,.24-.06.38.38,0,0,0,.16-.17.53.53,0,0,0,.06-.26.57.57,0,0,0-.06-.27.52.52,0,0,0-.16-.17.59.59,0,0,0-.23-.05.6.6,0,0,0-.24.05.44.44,0,0,0-.16.17.57.57,0,0,0-.06.27.53.53,0,0,0,.06.26.33.33,0,0,0,.16.17A.46.46,0,0,0,11.46,23.75Z"/><path class="cls-1" d="M13.39,24.18a1.61,1.61,0,0,1-.44-.06.84.84,0,0,1-.33-.14l.17-.36a1.1,1.1,0,0,0,.29.12,1.26,1.26,0,0,0,.33.05.49.49,0,0,0,.25-.05.14.14,0,0,0,.08-.12.1.1,0,0,0-.06-.09.53.53,0,0,0-.15-.05l-.21,0-.23-.05-.22-.08a.54.54,0,0,1-.15-.15.49.49,0,0,1-.06-.25.44.44,0,0,1,.1-.3.67.67,0,0,1,.28-.21,1.16,1.16,0,0,1,.44-.07,1.64,1.64,0,0,1,.38,0,1.58,1.58,0,0,1,.31.11l-.17.37a.93.93,0,0,0-.26-.1l-.25,0a.54.54,0,0,0-.26.05.14.14,0,0,0-.08.12.12.12,0,0,0,.06.1.5.5,0,0,0,.16.05l.21,0,.23.05.21.08a.57.57,0,0,1,.16.15.62.62,0,0,1,.05.25.43.43,0,0,1-.1.29.54.54,0,0,1-.28.2A1.26,1.26,0,0,1,13.39,24.18Z"/><path class="cls-1" d="M14.81,22.12a.34.34,0,0,1-.24-.09.28.28,0,0,1-.08-.2.32.32,0,0,1,.08-.21.38.38,0,0,1,.24-.08.3.3,0,0,1,.23.08.23.23,0,0,1,.1.2.29.29,0,0,1-.09.21A.32.32,0,0,1,14.81,22.12Zm-.26,2V22.37h.52v1.78Z"/><path class="cls-1" d="M15.34,22.8v-.39h1.24v.39Zm.94,1.38a.74.74,0,0,1-.49-.16.62.62,0,0,1-.18-.48V22h.53v1.56a.23.23,0,0,0,.05.17.22.22,0,0,0,.16.07.33.33,0,0,0,.21-.07l.14.36a.48.48,0,0,1-.19.09A.85.85,0,0,1,16.28,24.18Z"/><path class="cls-1" d="M17.88,24.18a1.12,1.12,0,0,1-.53-.12.83.83,0,0,1-.36-.33,1,1,0,0,1-.13-.47.86.86,0,0,1,.13-.48.85.85,0,0,1,.33-.32,1,1,0,0,1,.49-.12,1.06,1.06,0,0,1,.48.11.85.85,0,0,1,.33.32,1,1,0,0,1,.12.5v.06a.15.15,0,0,1,0,.07H17.28v-.3h1.18l-.2.09a.6.6,0,0,0-.05-.24.41.41,0,0,0-.16-.16.44.44,0,0,0-.23-.06.48.48,0,0,0-.24.06.39.39,0,0,0-.15.16.49.49,0,0,0-.06.25v.08a.46.46,0,0,0,.07.26.35.35,0,0,0,.18.16.71.71,0,0,0,.52,0,.53.53,0,0,0,.2-.13l.28.3a.85.85,0,0,1-.31.21A1.18,1.18,0,0,1,17.88,24.18Z"/><path class="cls-1" d="M2.87,28.68V26.8H2.12v-.44h2v.44H3.4v1.88Z"/><path class="cls-1" d="M5.25,28.71a1.07,1.07,0,0,1-.51-.12,1,1,0,0,1-.34-.32.86.86,0,0,1-.13-.48.81.81,0,0,1,.13-.47A.9.9,0,0,1,4.74,27a1.07,1.07,0,0,1,.51-.12,1,1,0,0,1,.5.12.86.86,0,0,1,.35.33.81.81,0,0,1,.13.47.86.86,0,0,1-.13.48.91.91,0,0,1-.35.32A1,1,0,0,1,5.25,28.71Zm0-.42a.46.46,0,0,0,.23-.06.44.44,0,0,0,.16-.17.6.6,0,0,0,.06-.27.53.53,0,0,0-.06-.26.38.38,0,0,0-.16-.17.47.47,0,0,0-.46,0,.4.4,0,0,0-.17.17.53.53,0,0,0-.06.26.6.6,0,0,0,.06.27.46.46,0,0,0,.17.17A.44.44,0,0,0,5.25,28.29Z"/><path class="cls-1" d="M7.46,28.71a1.12,1.12,0,0,1-.53-.12.87.87,0,0,1-.36-.32,1,1,0,0,1-.13-.48.85.85,0,0,1,.13-.47A.87.87,0,0,1,6.9,27a1,1,0,0,1,.49-.12,1,1,0,0,1,.48.12.82.82,0,0,1,.33.31,1,1,0,0,1,.12.5v.07a.17.17,0,0,1,0,.07H6.86v-.3H8l-.2.09a.49.49,0,0,0-.06-.25.38.38,0,0,0-.38-.21.47.47,0,0,0-.24.05.52.52,0,0,0-.16.17.6.6,0,0,0,0,.24v.08a.44.44,0,0,0,.07.26.42.42,0,0,0,.18.17.64.64,0,0,0,.52,0,.53.53,0,0,0,.2-.13l.28.3a.84.84,0,0,1-.31.22A1.18,1.18,0,0,1,7.46,28.71Z"/><path class="cls-1" d="M9.82,28.72a1.35,1.35,0,0,1-.5-.08,1.24,1.24,0,0,1-.4-.25A1.19,1.19,0,0,1,8.65,28a1.21,1.21,0,0,1-.09-.48A1.28,1.28,0,0,1,8.65,27a1.26,1.26,0,0,1,.27-.38,1.18,1.18,0,0,1,.4-.25,1.35,1.35,0,0,1,.5-.09,1.42,1.42,0,0,1,.55.11,1.12,1.12,0,0,1,.41.3l-.35.32a.79.79,0,0,0-.26-.2.71.71,0,0,0-.32-.07.94.94,0,0,0-.3,0,.78.78,0,0,0-.24.16.51.51,0,0,0-.15.23.73.73,0,0,0-.06.3.81.81,0,0,0,.06.31.57.57,0,0,0,.15.23.78.78,0,0,0,.24.16.94.94,0,0,0,.3.05.71.71,0,0,0,.32-.07,1,1,0,0,0,.26-.21l.35.32a1.14,1.14,0,0,1-.41.31A1.42,1.42,0,0,1,9.82,28.72Z"/><path class="cls-1" d="M11.65,28.71a.75.75,0,0,1-.35-.07.55.55,0,0,1-.23-.19.49.49,0,0,1-.09-.28.54.54,0,0,1,.08-.28.48.48,0,0,1,.25-.18,1.1,1.1,0,0,1,.44-.07h.48v.3h-.42a.38.38,0,0,0-.25.06.18.18,0,0,0-.07.15.18.18,0,0,0,.08.16.41.41,0,0,0,.21.05A.46.46,0,0,0,12,28.3a.34.34,0,0,0,.15-.18l.08.24a.47.47,0,0,1-.2.26A.75.75,0,0,1,11.65,28.71Zm.54,0v-.34l0-.08v-.62a.33.33,0,0,0-.1-.26.46.46,0,0,0-.31-.1.87.87,0,0,0-.28,0,.9.9,0,0,0-.24.12l-.18-.36a.94.94,0,0,1,.35-.16,1.52,1.52,0,0,1,.42-.06.93.93,0,0,1,.63.2.73.73,0,0,1,.23.6v1Z"/><path class="cls-1" d="M13.15,29.33V26.9h.49v.9l0,.52v1Zm1-.62a.71.71,0,0,1-.39-.1.66.66,0,0,1-.27-.3,1.55,1.55,0,0,1,0-1,.7.7,0,0,1,.26-.3.85.85,0,0,1,.4-.1.9.9,0,0,1,.46.12.74.74,0,0,1,.31.32.92.92,0,0,1,.12.48,1,1,0,0,1-.12.49.86.86,0,0,1-.31.32A1,1,0,0,1,14.2,28.71Zm-.09-.42a.41.41,0,0,0,.23-.06.46.46,0,0,0,.17-.17.6.6,0,0,0,.06-.27.53.53,0,0,0-.06-.26.4.4,0,0,0-.17-.17.41.41,0,0,0-.23-.06.46.46,0,0,0-.23.06.38.38,0,0,0-.16.17.53.53,0,0,0-.06.26.6.6,0,0,0,.06.27.44.44,0,0,0,.16.17A.46.46,0,0,0,14.11,28.29Z"/><path class="cls-1" d="M4.57,33.86a2.13,2.13,0,0,1-.31-.7,3.34,3.34,0,0,1,0-1.7,2.13,2.13,0,0,1,.31-.7h.49a3.4,3.4,0,0,0-.31.75,3.6,3.6,0,0,0,0,1.6,3.4,3.4,0,0,0,.31.75Z"/><path class="cls-1" d="M5.2,33.22v-.35L6.1,32a1,1,0,0,0,.15-.17.37.37,0,0,0,.07-.14.74.74,0,0,0,0-.12.27.27,0,0,0-.09-.22A.47.47,0,0,0,6,31.31a.67.67,0,0,0-.28.06.47.47,0,0,0-.2.17l-.39-.25A.9.9,0,0,1,5.47,31,1.35,1.35,0,0,1,6,30.86a1.25,1.25,0,0,1,.45.08.83.83,0,0,1,.31.24.62.62,0,0,1,.1.37.89.89,0,0,1,0,.22,1,1,0,0,1-.11.23,1.53,1.53,0,0,1-.25.28l-.74.7-.1-.2H7v.44Z"/><path class="cls-1" d="M8.17,33.26a1,1,0,0,1-.51-.14,1,1,0,0,1-.35-.41,1.69,1.69,0,0,1,0-1.3A1,1,0,0,1,7.66,31a1,1,0,0,1,.51-.14,1,1,0,0,1,.52.14,1,1,0,0,1,.35.41,1.69,1.69,0,0,1,0,1.3,1,1,0,0,1-.35.41A1,1,0,0,1,8.17,33.26Zm0-.45a.38.38,0,0,0,.24-.08.48.48,0,0,0,.16-.24,1.57,1.57,0,0,0,0-.86.48.48,0,0,0-.16-.24.38.38,0,0,0-.24-.08.4.4,0,0,0-.23.08.48.48,0,0,0-.16.24,1.57,1.57,0,0,0,0,.86.48.48,0,0,0,.16.24A.4.4,0,0,0,8.17,32.81Z"/><path class="cls-1" d="M10.43,33.26a.94.94,0,0,1-.87-.55,1.69,1.69,0,0,1,0-1.3,1,1,0,0,1,1.74,0,1.69,1.69,0,0,1,0,1.3.94.94,0,0,1-.87.55Zm0-.45a.36.36,0,0,0,.23-.08.48.48,0,0,0,.16-.24,1.57,1.57,0,0,0,0-.86.48.48,0,0,0-.16-.24.36.36,0,0,0-.23-.08.41.41,0,0,0-.24.08.56.56,0,0,0-.16.24,1.57,1.57,0,0,0,0,.86.56.56,0,0,0,.16.24A.41.41,0,0,0,10.43,32.81Z"/><path class="cls-1" d="M12.26,33.26a1,1,0,0,1-.43-.09.83.83,0,0,1-.33-.25l.3-.36a.59.59,0,0,0,.2.19.39.39,0,0,0,.23.07q.33,0,.33-.39v-1.1h-.81V30.9H13.1v1.5a.75.75,0,0,1-.84.86Z"/><path class="cls-1" d="M13.88,33.86h-.5a2.65,2.65,0,0,0,.31-.75,3.25,3.25,0,0,0,0-1.6,2.65,2.65,0,0,0-.31-.75h.5a2.13,2.13,0,0,1,.31.7,3.34,3.34,0,0,1,0,1.7A2.13,2.13,0,0,1,13.88,33.86Z"/><path class="cls-1" d="M42.58,19H24.13V.55H42.58Zm-19,.63H43.2V0H23.58Z"/><path class="cls-1" d="M33.35,2.34a.7.7,0,0,1,.71.63.7.7,0,0,1-.71.7.63.63,0,0,1-.62-.7A.62.62,0,0,1,33.35,2.34Zm-5.7,2a8,8,0,0,1-.47,1s-.47.7.08,1.17,4.53,4.84-.08,9.22A.87.87,0,0,0,27.1,17a8.64,8.64,0,0,1,.78.94.87.87,0,0,0,1.33.31,3.41,3.41,0,0,1,3.44-.15,2,2,0,0,0,.7.31,1.87,1.87,0,0,0,.78-.31,3.28,3.28,0,0,1,3.37.15,1,1,0,0,0,1.4-.31s.39-.55.71-.94a.87.87,0,0,0-.08-1.25c-4.61-4.38-.63-8.68-.08-9.22a.86.86,0,0,0,.16-1.17,3.29,3.29,0,0,1-.55-1c-.31-.78-.78-.47-1.88-.47A1.63,1.63,0,0,1,35.62,2a.73.73,0,0,0-.94-.78H32a.72.72,0,0,0-.93.78,1.63,1.63,0,0,1-1.57,1.8C28.51,3.83,28,3.52,27.65,4.3Z"/><path class="cls-1" d="M26.86,24.19a1.36,1.36,0,0,1-.51-.09,1.09,1.09,0,0,1-.4-.25,1,1,0,0,1-.27-.38,1.28,1.28,0,0,1-.09-.48,1.21,1.21,0,0,1,.09-.48.94.94,0,0,1,.27-.38,1,1,0,0,1,.4-.25,1.44,1.44,0,0,1,.51-.09,1.4,1.4,0,0,1,.56.1,1.15,1.15,0,0,1,.42.3l-.35.32a.79.79,0,0,0-.6-.27.81.81,0,0,0-.31.06.75.75,0,0,0-.24.15.61.61,0,0,0-.15.24.73.73,0,0,0-.06.3.77.77,0,0,0,.06.3.51.51,0,0,0,.15.23.78.78,0,0,0,.24.16.73.73,0,0,0,.3.06.81.81,0,0,0,.31-.06.83.83,0,0,0,.3-.17l.3.38a1.23,1.23,0,0,1-.44.23A1.66,1.66,0,0,1,26.86,24.19Zm.44-.36V23h.49v.94Z"/><path class="cls-1" d="M29.14,24.18a1.12,1.12,0,0,1-.53-.12.89.89,0,0,1-.36-.33.94.94,0,0,1-.12-.47,1,1,0,0,1,.12-.48.81.81,0,0,1,.34-.32,1,1,0,0,1,.48-.12,1.06,1.06,0,0,1,.48.11.85.85,0,0,1,.33.32,1,1,0,0,1,.12.5v.06a.15.15,0,0,1,0,.07H28.54v-.3h1.18l-.2.09a.6.6,0,0,0-.05-.24.41.41,0,0,0-.16-.16.44.44,0,0,0-.23-.06.48.48,0,0,0-.24.06.39.39,0,0,0-.15.16.49.49,0,0,0-.06.25v.08a.46.46,0,0,0,.07.26.35.35,0,0,0,.18.16.71.71,0,0,0,.52,0,.53.53,0,0,0,.2-.13l.28.3a.85.85,0,0,1-.31.21A1.18,1.18,0,0,1,29.14,24.18Z"/><path class="cls-1" d="M31.43,22.34a.89.89,0,0,1,.38.08.68.68,0,0,1,.27.26,1,1,0,0,1,.09.45v1h-.51v-.94a.47.47,0,0,0-.1-.32.33.33,0,0,0-.27-.1.54.54,0,0,0-.22.05.46.46,0,0,0-.15.16.52.52,0,0,0-.05.27v.88h-.52V22.37h.49v.49l-.09-.15a.75.75,0,0,1,.28-.28A.87.87,0,0,1,31.43,22.34Z"/><path class="cls-1" d="M33.4,24.18a.82.82,0,0,1-.4-.09.62.62,0,0,1-.27-.26.9.9,0,0,1-.1-.46v-1h.52v.92a.48.48,0,0,0,.09.33.37.37,0,0,0,.27.11.46.46,0,0,0,.21-.05.39.39,0,0,0,.15-.16.54.54,0,0,0,.06-.27v-.88h.51v1.78H34v-.49l.09.14a.57.57,0,0,1-.27.28A.69.69,0,0,1,33.4,24.18Z"/><path class="cls-1" d="M35.18,22.12a.34.34,0,0,1-.24-.09.28.28,0,0,1-.08-.2.32.32,0,0,1,.08-.21.38.38,0,0,1,.24-.08.3.3,0,0,1,.23.08.23.23,0,0,1,.1.2.29.29,0,0,1-.09.21A.32.32,0,0,1,35.18,22.12Zm-.26,2V22.37h.52v1.78Z"/><path class="cls-1" d="M37,22.34a.92.92,0,0,1,.38.08.65.65,0,0,1,.26.26,1,1,0,0,1,.1.45v1h-.52v-.94a.42.42,0,0,0-.1-.32.33.33,0,0,0-.26-.1.48.48,0,0,0-.22.05.41.41,0,0,0-.16.16.65.65,0,0,0-.05.27v.88h-.52V22.37h.5v.49l-.1-.15a.75.75,0,0,1,.28-.28A.88.88,0,0,1,37,22.34Z"/><path class="cls-1" d="M39.1,24.18a1.12,1.12,0,0,1-.53-.12.83.83,0,0,1-.36-.33,1,1,0,0,1-.13-.47.86.86,0,0,1,.13-.48.85.85,0,0,1,.33-.32,1,1,0,0,1,.49-.12,1.06,1.06,0,0,1,.48.11.85.85,0,0,1,.33.32,1,1,0,0,1,.12.5v.06a.15.15,0,0,1,0,.07H38.5v-.3h1.18l-.2.09a.6.6,0,0,0,0-.24.41.41,0,0,0-.16-.16.44.44,0,0,0-.23-.06.48.48,0,0,0-.24.06.39.39,0,0,0-.15.16.49.49,0,0,0-.06.25v.08a.46.46,0,0,0,.07.26.35.35,0,0,0,.18.16.71.71,0,0,0,.52,0,.53.53,0,0,0,.2-.13l.28.3a.85.85,0,0,1-.31.21A1.18,1.18,0,0,1,39.1,24.18Z"/><path class="cls-1" d="M26.51,28.68V26.36h.55v1.89h1.15v.43Z"/><path class="cls-1" d="M29.37,28.71a1.16,1.16,0,0,1-.54-.12.91.91,0,0,1-.35-.32.86.86,0,0,1-.13-.48.94.94,0,0,1,.12-.47.9.9,0,0,1,.34-.33,1,1,0,0,1,.49-.12.91.91,0,0,1,.47.12.85.85,0,0,1,.34.31,1,1,0,0,1,.12.5v.07s0,.05,0,.07H28.77v-.3H30l-.2.09a.49.49,0,0,0-.06-.25.57.57,0,0,0-.15-.16.47.47,0,0,0-.24-.05.46.46,0,0,0-.23.05.44.44,0,0,0-.16.17.6.6,0,0,0-.05.24v.08a.53.53,0,0,0,.06.26.52.52,0,0,0,.19.17.57.57,0,0,0,.27.06.62.62,0,0,0,.25-.05.63.63,0,0,0,.2-.13l.27.3a.73.73,0,0,1-.3.22A1.18,1.18,0,0,1,29.37,28.71Z"/><path class="cls-1" d="M31.13,28.71a.8.8,0,0,1-.36-.07.62.62,0,0,1-.23-.19.57.57,0,0,1-.08-.28.54.54,0,0,1,.08-.28.44.44,0,0,1,.25-.18,1.1,1.1,0,0,1,.44-.07h.47v.3h-.42A.4.4,0,0,0,31,28a.21.21,0,0,0-.07.15.21.21,0,0,0,.08.16.41.41,0,0,0,.21.05.48.48,0,0,0,.24-.06.34.34,0,0,0,.15-.18l.08.24a.49.49,0,0,1-.21.26A.74.74,0,0,1,31.13,28.71Zm.54,0v-.34l0-.08v-.62a.33.33,0,0,0-.1-.26.46.46,0,0,0-.31-.1.87.87,0,0,0-.28,0,.9.9,0,0,0-.24.12l-.18-.36a.87.87,0,0,1,.35-.16,1.47,1.47,0,0,1,.42-.06.93.93,0,0,1,.63.2.73.73,0,0,1,.23.6v1Z"/><path class="cls-1" d="M32.41,27.34v-.4h1.24v.4Zm.94,1.37a.69.69,0,0,1-.49-.16.61.61,0,0,1-.17-.48V26.5h.52v1.56a.26.26,0,0,0,.06.18.19.19,0,0,0,.15.06.32.32,0,0,0,.22-.07l.13.37a.47.47,0,0,1-.19.08A.85.85,0,0,1,33.35,28.71Z"/><path class="cls-1" d="M35.15,26.87a.79.79,0,0,1,.38.09.61.61,0,0,1,.27.26.93.93,0,0,1,.09.44v1h-.51v-.94a.49.49,0,0,0-.1-.32.33.33,0,0,0-.27-.1.54.54,0,0,0-.22.05.46.46,0,0,0-.15.16.54.54,0,0,0,0,.27v.88h-.52V26.22h.52v1.17l-.12-.15a.7.7,0,0,1,.27-.27A.8.8,0,0,1,35.15,26.87Z"/><path class="cls-1" d="M37.25,28.71a1.13,1.13,0,0,1-.54-.12.91.91,0,0,1-.35-.32.86.86,0,0,1-.13-.48.94.94,0,0,1,.12-.47.9.9,0,0,1,.34-.33,1,1,0,0,1,.49-.12,1,1,0,0,1,.81.43,1,1,0,0,1,.12.5v.07a.17.17,0,0,0,0,.07H36.65v-.3h1.18l-.21.09a.4.4,0,0,0,0-.25.57.57,0,0,0-.15-.16.47.47,0,0,0-.24-.05.46.46,0,0,0-.23.05.44.44,0,0,0-.16.17.47.47,0,0,0,0,.24v.08a.53.53,0,0,0,.06.26.58.58,0,0,0,.18.17.61.61,0,0,0,.28.06.62.62,0,0,0,.25-.05.63.63,0,0,0,.2-.13l.27.3a.7.7,0,0,1-.31.22A1.09,1.09,0,0,1,37.25,28.71Z"/><path class="cls-1" d="M38.45,28.68V26.9H39v.51l-.07-.15a.59.59,0,0,1,.25-.29.94.94,0,0,1,.43-.1v.48h-.11a.5.5,0,0,0-.35.12.54.54,0,0,0-.13.38v.84Z"/><path class="cls-1" d="M28.88,33.26A1.09,1.09,0,0,1,28.1,33a1.1,1.1,0,0,1-.28-.79V30.9h.55v1.28a.71.71,0,0,0,.13.48.56.56,0,0,0,.76,0,.71.71,0,0,0,.14-.48V30.9h.53v1.3a1.1,1.1,0,0,1-.28.79A1.08,1.08,0,0,1,28.88,33.26Z"/><path class="cls-1" d="M30.42,33.86V31.44h.5v.89l0,.53v1Zm1.06-.61a.88.88,0,0,1-.4-.1.67.67,0,0,1-.26-.31,1.23,1.23,0,0,1-.09-.51,1.16,1.16,0,0,1,.09-.52.62.62,0,0,1,.25-.3.78.78,0,0,1,.41-.1.94.94,0,0,1,.45.11.89.89,0,0,1,.32.32,1,1,0,0,1,.12.49.9.9,0,0,1-.12.48.76.76,0,0,1-.32.32A.84.84,0,0,1,31.48,33.25Zm-.09-.43a.44.44,0,0,0,.23-.06.38.38,0,0,0,.16-.17.53.53,0,0,0,.06-.26.57.57,0,0,0-.06-.27.44.44,0,0,0-.16-.17.55.55,0,0,0-.46,0,.46.46,0,0,0-.17.17.57.57,0,0,0-.06.27.53.53,0,0,0,.06.26.4.4,0,0,0,.17.17A.44.44,0,0,0,31.39,32.82Z"/><path class="cls-1" d="M32.71,33.86V31.44h.5v.89l0,.53v1Zm1-.61a.84.84,0,0,1-.39-.1.67.67,0,0,1-.26-.31,1.22,1.22,0,0,1-.1-.51,1.31,1.31,0,0,1,.09-.52.7.7,0,0,1,.26-.3.77.77,0,0,1,.4-.1.85.85,0,0,1,.78.43,1,1,0,0,1,.12.49.9.9,0,0,1-.12.48.82.82,0,0,1-.32.32A.88.88,0,0,1,33.76,33.25Zm-.08-.43a.46.46,0,0,0,.23-.06.38.38,0,0,0,.16-.17.53.53,0,0,0,.06-.26.57.57,0,0,0-.06-.27.44.44,0,0,0-.16-.17.59.59,0,0,0-.23-.05.52.52,0,0,0-.23.05.46.46,0,0,0-.17.17.57.57,0,0,0-.06.27.53.53,0,0,0,.06.26.4.4,0,0,0,.17.17A.41.41,0,0,0,33.68,32.82Z"/><path class="cls-1" d="M35.89,33.25a1.19,1.19,0,0,1-.54-.12A.86.86,0,0,1,35,32.8a.83.83,0,0,1-.13-.47,1,1,0,0,1,.12-.48.87.87,0,0,1,.34-.32,1.06,1.06,0,0,1,1,0,.81.81,0,0,1,.34.32,1,1,0,0,1,.12.5v.06s0,.05,0,.07H35.29v-.3h1.18l-.2.09a.48.48,0,0,0-.06-.24.39.39,0,0,0-.15-.16.48.48,0,0,0-.24-.06.46.46,0,0,0-.23.06.41.41,0,0,0-.16.16.62.62,0,0,0,0,.25v.08a.55.55,0,0,0,.06.26.42.42,0,0,0,.19.16.57.57,0,0,0,.27.06.59.59,0,0,0,.45-.17l.27.3a.81.81,0,0,1-.3.21A1.18,1.18,0,0,1,35.89,33.25Z"/><path class="cls-1" d="M37.1,33.22V31.44h.49v.5l-.07-.15a.55.55,0,0,1,.26-.28.79.79,0,0,1,.42-.1v.48h-.11a.51.51,0,0,0-.35.12.53.53,0,0,0-.13.38v.84Z"/><polygon class="cls-1" points="60.14 10.4 55.22 9.22 53.73 9.38 58.58 10.55 60.14 10.4"/><polygon class="cls-1" points="55.22 11.96 53.73 12.12 58.58 13.29 60.14 13.13 55.22 11.96"/><polygon class="cls-1" points="55.22 14.7 53.73 14.85 58.58 16.02 60.14 15.87 55.22 14.7"/><path class="cls-1" d="M61.08,8.6l-.94-.24h-3.6a.47.47,0,1,0,0,.94l4.07,1a1,1,0,0,0,1.09-.71A.83.83,0,0,0,61.08,8.6Z"/><path class="cls-1" d="M61.08,11.33l-7.9-1.87a1,1,0,0,0-1.09.62.93.93,0,0,0,.62,1.1l7.9,1.87a.94.94,0,0,0,1.09-.62A.92.92,0,0,0,61.08,11.33Z"/><path class="cls-1" d="M61.08,14.07l-7.9-1.88a1,1,0,0,0-1.09.71.86.86,0,0,0,.62,1l7.9,1.88a.89.89,0,0,0,.47-1.72Z"/><path class="cls-1" d="M61.08,16.81l-7.9-1.88a1,1,0,0,0-1.09.7.84.84,0,0,0,.62,1l7.9,1.88a1,1,0,0,0,1.09-.63A.94.94,0,0,0,61.08,16.81Z"/><path class="cls-1" d="M66.16,3.67A9.27,9.27,0,0,1,60.92.55h5.24Zm0,15.32H47.71V.55h5.08c-.47,3.05-1.64,5.16.63,6.8,1.95,1.33,3-.24,5.78-.32,2,0,3.36,1.49,7,1.18Zm-19,.63H66.78V0H47.16Z"/><path class="cls-1" d="M51.41,23.72h1.27v.43h-1.8V21.83h1.75v.43H51.41Zm0-1h1.12v.42H51.37Z"/><path class="cls-1" d="M54.15,22.34a.92.92,0,0,1,.38.08.75.75,0,0,1,.27.26,1,1,0,0,1,.09.45v1h-.52v-.94a.49.49,0,0,0-.09-.32.33.33,0,0,0-.27-.1.54.54,0,0,0-.22.05.46.46,0,0,0-.15.16.54.54,0,0,0-.06.27v.88h-.51V22.37h.49v.49l-.09-.15a.59.59,0,0,1,.27-.27A.8.8,0,0,1,54.15,22.34Z"/><path class="cls-1" d="M56.25,24.18a1.13,1.13,0,0,1-.54-.12.86.86,0,0,1-.35-.33.83.83,0,0,1-.13-.47,1,1,0,0,1,.12-.48.81.81,0,0,1,.34-.32,1,1,0,0,1,.49-.12,1,1,0,0,1,.47.11,1,1,0,0,1,.34.32,1,1,0,0,1,.12.5v.06a.2.2,0,0,0,0,.07H55.65v-.3h1.18l-.21.09a.39.39,0,0,0,0-.24.44.44,0,0,0-.39-.22.44.44,0,0,0-.23.06.41.41,0,0,0-.16.16.49.49,0,0,0-.06.25v.08a.53.53,0,0,0,.07.26.58.58,0,0,0,.18.17.78.78,0,0,0,.28.05.59.59,0,0,0,.45-.17l.27.3a.77.77,0,0,1-.31.21A1.08,1.08,0,0,1,56.25,24.18Z"/><path class="cls-1" d="M57.45,24.15V22.37H58v.5l-.07-.15a.57.57,0,0,1,.25-.28.83.83,0,0,1,.43-.1v.48h-.11a.5.5,0,0,0-.35.12.49.49,0,0,0-.13.38v.84Z"/><path class="cls-1" d="M59.64,24.07A.93.93,0,0,1,59.2,24a.8.8,0,0,1-.33-.3.85.85,0,0,1-.12-.46.84.84,0,0,1,.12-.45.8.8,0,0,1,.33-.3.93.93,0,0,1,.44-.11.82.82,0,0,1,.4.09.59.59,0,0,1,.27.29,1,1,0,0,1,.1.48,1,1,0,0,1-.1.49A.57.57,0,0,1,60,24,.82.82,0,0,1,59.64,24.07Zm.08.75a1.91,1.91,0,0,1-.48-.06,1,1,0,0,1-.39-.18l.2-.38a.73.73,0,0,0,.29.15,1,1,0,0,0,.35.06.54.54,0,0,0,.4-.13.49.49,0,0,0,.12-.36v-.27l0-.45v-.83h.5v1.48a.94.94,0,0,1-.26.73A1.07,1.07,0,0,1,59.72,24.82Zm0-1.18a.47.47,0,0,0,.24-.05.44.44,0,0,0,.22-.39.44.44,0,0,0-.06-.23.46.46,0,0,0-.16-.15.6.6,0,0,0-.48,0,.42.42,0,0,0-.17.15.44.44,0,0,0-.06.23.41.41,0,0,0,.06.23.38.38,0,0,0,.17.16A.47.47,0,0,0,59.75,23.64Z"/><path class="cls-1" d="M61.43,24.82a.84.84,0,0,1-.27,0,.57.57,0,0,1-.22-.12l.18-.37a.39.39,0,0,0,.14.08.45.45,0,0,0,.16,0,.23.23,0,0,0,.17,0,.5.5,0,0,0,.12-.17L61.8,24l0-.05.64-1.54H63l-.81,1.89a1,1,0,0,1-.19.34.66.66,0,0,1-.25.17A.73.73,0,0,1,61.43,24.82Zm.31-.6-.8-1.85h.54l.62,1.49Z"/><path class="cls-1" d="M47.84,28.68l1-2.32h.53l1,2.32h-.56L49,26.63h.21l-.85,2.05Zm.52-.49.14-.41h1.2l.14.41Z"/><path class="cls-1" d="M50.65,28.68V26.22h.52v1l0,.53v.89Zm1.05,0a.77.77,0,0,1-.4-.1.6.6,0,0,1-.26-.3,1.31,1.31,0,0,1-.09-.52,1.15,1.15,0,0,1,.1-.52.7.7,0,0,1,.26-.3.81.81,0,0,1,.39-.1.9.9,0,0,1,.46.12.82.82,0,0,1,.32.32.92.92,0,0,1,.11.48,1,1,0,0,1-.11.49,1,1,0,0,1-.32.32A1,1,0,0,1,51.7,28.71Zm-.08-.42a.46.46,0,0,0,.23-.06.52.52,0,0,0,.16-.17.6.6,0,0,0,.06-.27.53.53,0,0,0-.06-.26.44.44,0,0,0-.16-.17.46.46,0,0,0-.23-.06.48.48,0,0,0-.24.06.38.38,0,0,0-.16.17.53.53,0,0,0-.06.26.6.6,0,0,0,.06.27.44.44,0,0,0,.16.17A.48.48,0,0,0,51.62,28.29Z"/><path class="cls-1" d="M53.54,28.71a2.12,2.12,0,0,1-.44-.05,1.3,1.3,0,0,1-.33-.14l.17-.37a1.1,1.1,0,0,0,.29.12,1.26,1.26,0,0,0,.33.05.67.67,0,0,0,.25,0,.14.14,0,0,0,.08-.12.1.1,0,0,0-.06-.1.53.53,0,0,0-.15,0l-.21,0-.23-.05a.83.83,0,0,1-.22-.08.54.54,0,0,1-.15-.15.49.49,0,0,1-.06-.25.47.47,0,0,1,.1-.3.67.67,0,0,1,.28-.21,1.4,1.4,0,0,1,.44-.07,2.45,2.45,0,0,1,.38,0,1.11,1.11,0,0,1,.31.12l-.17.37a1,1,0,0,0-.26-.11l-.25,0a.54.54,0,0,0-.26,0,.14.14,0,0,0-.08.12.11.11,0,0,0,.06.1.5.5,0,0,0,.16,0l.21,0,.23,0a1,1,0,0,1,.21.09.31.31,0,0,1,.15.15.44.44,0,0,1,.06.25.45.45,0,0,1-.1.29.67.67,0,0,1-.28.2A1.27,1.27,0,0,1,53.54,28.71Z"/><path class="cls-1" d="M55.55,28.71a1.07,1.07,0,0,1-.51-.12.9.9,0,0,1-.34-.33.81.81,0,0,1-.13-.47.86.86,0,0,1,.13-.48A1,1,0,0,1,55,27a1.14,1.14,0,0,1,1,0,1,1,0,0,1,.34.32,1,1,0,0,1,0,1,1,1,0,0,1-.34.32A1.07,1.07,0,0,1,55.55,28.71Zm0-.42a.43.43,0,0,0,.39-.23.6.6,0,0,0,.07-.27.53.53,0,0,0-.07-.26.38.38,0,0,0-.16-.17.47.47,0,0,0-.46,0,.4.4,0,0,0-.17.17.53.53,0,0,0-.06.26.6.6,0,0,0,.06.27.46.46,0,0,0,.17.17A.44.44,0,0,0,55.55,28.29Z"/><path class="cls-1" d="M56.88,28.68V26.9h.49v.51l-.07-.15a.57.57,0,0,1,.26-.29.79.79,0,0,1,.42-.1v.48h-.11a.51.51,0,0,0-.35.12.53.53,0,0,0-.13.38v.84Z"/><path class="cls-1" d="M58.31,28.68V26.22h.51v1l0,.53v.89Zm1,0a.72.72,0,0,1-.4-.1.56.56,0,0,1-.26-.3,1.55,1.55,0,0,1,0-1A.66.66,0,0,1,59,27a.81.81,0,0,1,.39-.1.84.84,0,0,1,.45.12.76.76,0,0,1,.32.32.92.92,0,0,1,.12.48,1,1,0,0,1-.12.49.89.89,0,0,1-.32.32A.94.94,0,0,1,59.36,28.71Zm-.09-.42a.43.43,0,0,0,.39-.23.6.6,0,0,0,.07-.27.53.53,0,0,0-.07-.26.38.38,0,0,0-.16-.17.47.47,0,0,0-.46,0,.4.4,0,0,0-.17.17.53.53,0,0,0-.06.26.6.6,0,0,0,.06.27.46.46,0,0,0,.17.17A.44.44,0,0,0,59.27,28.29Z"/><path class="cls-1" d="M60.85,26.65a.36.36,0,0,1-.23-.08.29.29,0,0,1-.09-.21.25.25,0,0,1,.09-.2.32.32,0,0,1,.23-.09.36.36,0,0,1,.24.08.25.25,0,0,1,.09.2.26.26,0,0,1-.09.21A.32.32,0,0,1,60.85,26.65Zm-.25,2V26.9h.51v1.78Z"/><path class="cls-1" d="M62.68,26.87a.79.79,0,0,1,.38.09.55.55,0,0,1,.26.26.82.82,0,0,1,.1.44v1H62.9v-.94a.49.49,0,0,0-.09-.32.36.36,0,0,0-.27-.1.51.51,0,0,0-.22.05.33.33,0,0,0-.15.16.54.54,0,0,0-.06.27v.88h-.52V26.9h.5v.49L62,27.24a.59.59,0,0,1,.27-.27A.8.8,0,0,1,62.68,26.87Z"/><path class="cls-1" d="M64.64,28.6a.93.93,0,0,1-.44-.11.77.77,0,0,1-.32-.3.85.85,0,0,1-.12-.46.84.84,0,0,1,.12-.45.77.77,0,0,1,.32-.3.93.93,0,0,1,.44-.11.88.88,0,0,1,.41.09.62.62,0,0,1,.26.29,1,1,0,0,1,.1.48,1,1,0,0,1-.1.49.59.59,0,0,1-.26.28A.78.78,0,0,1,64.64,28.6Zm.09.75a2,2,0,0,1-.49-.06,1,1,0,0,1-.39-.18l.21-.38a.76.76,0,0,0,.28.16,1.41,1.41,0,0,0,.35.05.58.58,0,0,0,.4-.12.53.53,0,0,0,.12-.37v-.26l0-.46V26.9h.49v1.49a1,1,0,0,1-.26.73A1.09,1.09,0,0,1,64.73,29.35Zm0-1.17a.48.48,0,0,0,.24-.06.44.44,0,0,0,.17-.16.41.41,0,0,0,.06-.23.46.46,0,0,0-.06-.23.5.5,0,0,0-.17-.15.6.6,0,0,0-.48,0,.5.5,0,0,0-.17.15.46.46,0,0,0-.06.23.41.41,0,0,0,.06.23.44.44,0,0,0,.17.16A.48.48,0,0,0,64.75,28.18Z"/><path class="cls-1" d="M53.69,33.22h-.54V30.9h.54Zm1.09-.95H53.64v-.46h1.14Zm0-1.37h.54v2.32h-.54Z"/><path class="cls-1" d="M56.68,33.25a1.16,1.16,0,0,1-.54-.12.9.9,0,0,1-.48-.8,1,1,0,0,1,.12-.48.9.9,0,0,1,.34-.33,1.14,1.14,0,0,1,.49-.11.91.91,0,0,1,.47.11.87.87,0,0,1,.34.32,1,1,0,0,1,.12.49v.07a.2.2,0,0,0,0,.07H56.08v-.3h1.18l-.2.09A.48.48,0,0,0,57,32a.46.46,0,0,0-.15-.16.48.48,0,0,0-.24-.06.46.46,0,0,0-.23.06.41.41,0,0,0-.16.16.62.62,0,0,0,0,.25v.08a.49.49,0,0,0,.06.25.44.44,0,0,0,.19.17.57.57,0,0,0,.27.06.59.59,0,0,0,.45-.17l.27.3a.81.81,0,0,1-.3.21A1.18,1.18,0,0,1,56.68,33.25Z"/><path class="cls-1" d="M58.44,33.25a.8.8,0,0,1-.36-.08.48.48,0,0,1-.23-.19.51.51,0,0,1-.08-.28.43.43,0,0,1,.08-.27.47.47,0,0,1,.24-.19,1.42,1.42,0,0,1,.45-.07H59v.3h-.42a.4.4,0,0,0-.25.06.21.21,0,0,0-.07.15.19.19,0,0,0,.08.16.33.33,0,0,0,.21.06.48.48,0,0,0,.24-.06.32.32,0,0,0,.15-.19l.08.25a.47.47,0,0,1-.21.25A.65.65,0,0,1,58.44,33.25Zm.54,0v-.35l0-.08v-.62a.36.36,0,0,0-.1-.26.48.48,0,0,0-.31-.09.86.86,0,0,0-.28,0A.67.67,0,0,0,58,32l-.18-.36a1,1,0,0,1,.35-.16,1.86,1.86,0,0,1,.42-.05.93.93,0,0,1,.63.19.75.75,0,0,1,.22.6v1Z"/><path class="cls-1" d="M59.93,33.22V30.76h.52v2.46Z"/><path class="cls-1" d="M87.59,11.8H71.33v-.54H87.59a.33.33,0,0,0,.31-.32A4.41,4.41,0,0,0,86.58,7.5c-1.49-1.17-3.37-1.48-5.79-2-.86-.15-1.8-.31-2.66-.55a4,4,0,0,1-.15.79,6.92,6.92,0,0,1-.63,1.72,2.2,2.2,0,0,1-2.19,1.25,4.35,4.35,0,0,1-1.8-.47,7.67,7.67,0,0,1-2-1.25V5.86l.08.08a1.19,1.19,0,0,1,.24.31,9.91,9.91,0,0,0,2,1.33A7.61,7.61,0,0,0,75.16,8,1.55,1.55,0,0,0,76.65,7a4.43,4.43,0,0,0,.62-1.48c.08-.31.08-.63.16-.86a10.82,10.82,0,0,1-1.72-.55l-.86,1.41c-.31.39-.94,0-.63-.39L75,3.91c-.32-.16-.55-.24-.86-.39l-.86,1.17c-.39.39-.94-.08-.55-.55l.78-1a5.52,5.52,0,0,1-2.19-2V.55H89.78V15.79l-.78.86-.16.16-.08-.16L87,14.85l-1.64,1.8-.15.16-.08-.16-1.72-1.8-1.64,1.8-.16.16-.08-.16-1.72-1.8-1.64,1.8-.08.16L78,16.65l-1.64-1.8-1.72,1.8-.08.16-.16-.16-1.64-1.8-1.41,1.49V13.52H87.59a.33.33,0,0,0,.31-.31V12.12A.33.33,0,0,0,87.59,11.8ZM90.41,0H70.71V19.62h19.7ZM71.33,18.53H89.78V19H71.33Z"/><path class="cls-1" d="M72.71,24.15l1-2.32h.53l1,2.32h-.56l-.85-2h.21l-.85,2Zm.52-.5.14-.4h1.2l.14.4Z"/><path class="cls-1" d="M76.61,22.34a.87.87,0,0,1,.37.08.68.68,0,0,1,.27.26,1,1,0,0,1,.1.45v1h-.52v-.94a.44.44,0,0,0-.1-.32.33.33,0,0,0-.26-.1.56.56,0,0,0-.23.05.46.46,0,0,0-.15.16.68.68,0,0,0,0,.27v.88h-.52V22.37H76v.49l-.09-.15a.66.66,0,0,1,.28-.27A.78.78,0,0,1,76.61,22.34Z"/><path class="cls-1" d="M77.6,22.8v-.39h1.24v.39Zm.94,1.38a.74.74,0,0,1-.49-.16.61.61,0,0,1-.17-.48V22h.52v1.56a.29.29,0,0,0,0,.17.2.2,0,0,0,.16.07.33.33,0,0,0,.21-.07l.14.37a.68.68,0,0,1-.19.08A.85.85,0,0,1,78.54,24.18Z"/><path class="cls-1" d="M79.52,22.12a.32.32,0,0,1-.24-.09.25.25,0,0,1-.09-.2.29.29,0,0,1,.09-.21.36.36,0,0,1,.24-.08.36.36,0,0,1,.23.08.25.25,0,0,1,.09.2.27.27,0,0,1-.09.21A.32.32,0,0,1,79.52,22.12Zm-.26,2V22.37h.51v1.78Z"/><path class="cls-1" d="M80.19,23.43V23h.94v.42Z"/><path class="cls-1" d="M82.14,24.18a1.56,1.56,0,0,1-.44-.06,1.21,1.21,0,0,1-.34-.13l.17-.37a1.34,1.34,0,0,0,.3.12,1.26,1.26,0,0,0,.33.05.49.49,0,0,0,.25-.05.12.12,0,0,0,.08-.12.1.1,0,0,0-.06-.09.53.53,0,0,0-.15-.05l-.22,0-.23-.05-.21-.08a.43.43,0,0,1-.15-.15.49.49,0,0,1-.06-.25.44.44,0,0,1,.1-.3.61.61,0,0,1,.28-.21,1.16,1.16,0,0,1,.44-.07,1.55,1.55,0,0,1,.37,0,1.19,1.19,0,0,1,.32.12l-.18.36a1.3,1.3,0,0,0-.25-.1l-.25,0a.54.54,0,0,0-.26.05.12.12,0,0,0-.08.12A.12.12,0,0,0,82,23l.15.05.22,0,.23.05.21.08a.46.46,0,0,1,.15.16.49.49,0,0,1,0,.53.56.56,0,0,1-.29.2A1.17,1.17,0,0,1,82.14,24.18Z"/><path class="cls-1" d="M83.3,24.15V21.69h.52v2.46Z"/><path class="cls-1" d="M84.56,22.12a.32.32,0,0,1-.24-.09.25.25,0,0,1-.09-.2.29.29,0,0,1,.09-.21.36.36,0,0,1,.24-.08.36.36,0,0,1,.23.08.25.25,0,0,1,.09.2.27.27,0,0,1-.09.21A.32.32,0,0,1,84.56,22.12Zm-.26,2V22.37h.52v1.78Z"/><path class="cls-1" d="M85.3,24.8V22.37h.49v.89l0,.53v1Zm1-.62a.81.81,0,0,1-.39-.1.69.69,0,0,1-.27-.31,1.23,1.23,0,0,1-.09-.51,1.31,1.31,0,0,1,.09-.52.64.64,0,0,1,.26-.3.74.74,0,0,1,.4-.1.94.94,0,0,1,.45.11.89.89,0,0,1,.32.32,1.06,1.06,0,0,1,0,1,.8.8,0,0,1-.32.31A.84.84,0,0,1,86.35,24.18Zm-.09-.43a.41.41,0,0,0,.23-.06.38.38,0,0,0,.16-.17.44.44,0,0,0,.07-.26.47.47,0,0,0-.07-.27.35.35,0,0,0-.16-.16.41.41,0,0,0-.23-.06.46.46,0,0,0-.23.06.43.43,0,0,0-.17.16.57.57,0,0,0-.06.27.53.53,0,0,0,.06.26.46.46,0,0,0,.4.23Z"/><path class="cls-1" d="M76.91,28.72a2,2,0,0,1-.54-.07,1.57,1.57,0,0,1-.41-.19l.18-.41a1.27,1.27,0,0,0,.35.17,1.23,1.23,0,0,0,.42.07.93.93,0,0,0,.26,0,.28.28,0,0,0,.14-.09.19.19,0,0,0,0-.13.16.16,0,0,0-.08-.14.42.42,0,0,0-.19-.09l-.26-.07-.29-.08a1.31,1.31,0,0,1-.27-.12A.53.53,0,0,1,76,27a.66.66,0,0,1,.11-.36.7.7,0,0,1,.32-.26,1.29,1.29,0,0,1,.55-.1,2.1,2.1,0,0,1,.43.05,1.25,1.25,0,0,1,.37.16l-.17.4a1.27,1.27,0,0,0-.32-.13,1.25,1.25,0,0,0-.32-.05.6.6,0,0,0-.25,0,.24.24,0,0,0-.14.09.24.24,0,0,0,0,.14.17.17,0,0,0,.07.14.53.53,0,0,0,.2.09l.26.06.29.08a1,1,0,0,1,.26.12.61.61,0,0,1,.2.19.56.56,0,0,1,.07.3.59.59,0,0,1-.11.36.7.7,0,0,1-.32.26A1.29,1.29,0,0,1,76.91,28.72Z"/><path class="cls-1" d="M79.07,28.71a1,1,0,0,1-.5-.12.86.86,0,0,1-.35-.33.89.89,0,0,1-.13-.47,1,1,0,0,1,.13-.48.91.91,0,0,1,.35-.32,1,1,0,0,1,.5-.12,1.07,1.07,0,0,1,.51.12,1,1,0,0,1,.35.32,1,1,0,0,1,0,1,1,1,0,0,1-.35.32A1.07,1.07,0,0,1,79.07,28.71Zm0-.42a.41.41,0,0,0,.23-.06.46.46,0,0,0,.17-.17.6.6,0,0,0,.06-.27.53.53,0,0,0-.06-.26.4.4,0,0,0-.17-.17.41.41,0,0,0-.23-.06.46.46,0,0,0-.23.06.38.38,0,0,0-.16.17.53.53,0,0,0-.06.26.6.6,0,0,0,.06.27.44.44,0,0,0,.16.17A.46.46,0,0,0,79.07,28.29Z"/><path class="cls-1" d="M80.4,28.68V26.22h.52v2.46Z"/><path class="cls-1" d="M82.28,28.71a1.12,1.12,0,0,1-.53-.12,1,1,0,0,1-.36-.33.89.89,0,0,1-.12-.47.91.91,0,0,1,.12-.47.83.83,0,0,1,.34-.33,1,1,0,0,1,.49-.12,1,1,0,0,1,.47.11.92.92,0,0,1,.33.32.91.91,0,0,1,.13.5s0,0,0,.07v.07H81.69v-.3h1.17l-.2.08a.47.47,0,0,0,0-.24.45.45,0,0,0-.78,0,.51.51,0,0,0-.06.25v.08a.44.44,0,0,0,.07.26.42.42,0,0,0,.18.17.61.61,0,0,0,.28.06.7.7,0,0,0,.25-.05.59.59,0,0,0,.19-.13l.28.3a.77.77,0,0,1-.31.22A1.14,1.14,0,0,1,82.28,28.71Z"/><path class="cls-1" d="M114,0H94.33V19.7H114Zm-5.4,6.25L98.47,4l-2-1.33,1.09-1.57,2.27,1.1.78-1.56H113.4V19.07H94.88V14.46l2.18.78,2.58-6.8c2.58-.15,5.08-.23,7.66-.39.94-.08,1.72.55,1.88,1.88l1.41-.24A3.28,3.28,0,0,0,108.55,6.25ZM95.89.63,95.42,2l-.54-.39V.63Zm13.92,10.08c-.24.55-.47,1.33-.86,2.19a7.49,7.49,0,0,0-.94,2.34,1.82,1.82,0,0,0,1.8,2,1.77,1.77,0,0,0,1.79-2,7.69,7.69,0,0,0-1-2.42A18.36,18.36,0,0,1,109.81,10.71Z"/><path class="cls-1" d="M103.31,24.27a1.35,1.35,0,0,1-.5-.09,1.22,1.22,0,0,1-.41-.25,1.46,1.46,0,0,1-.27-.38,1.28,1.28,0,0,1-.09-.48,1.21,1.21,0,0,1,.09-.48,1.31,1.31,0,0,1,.27-.38,1.22,1.22,0,0,1,.41-.25,1.35,1.35,0,0,1,.5-.09,1.44,1.44,0,0,1,.51.09,1.18,1.18,0,0,1,.4.25,1.05,1.05,0,0,1,.27.38,1.21,1.21,0,0,1,.09.48,1.28,1.28,0,0,1-.09.48,1.15,1.15,0,0,1-.27.38,1.18,1.18,0,0,1-.4.25A1.4,1.4,0,0,1,103.31,24.27Zm0-.45a.72.72,0,0,0,.29-.06.73.73,0,0,0,.23-.16.51.51,0,0,0,.15-.23.78.78,0,0,0,0-.6.61.61,0,0,0-.15-.24.7.7,0,0,0-.23-.15.73.73,0,0,0-.58,0,.7.7,0,0,0-.23.15,1,1,0,0,0-.15.24.78.78,0,0,0,0,.6.76.76,0,0,0,.15.23.73.73,0,0,0,.23.16A.72.72,0,0,0,103.31,23.82Z"/><path class="cls-1" d="M105.21,22.2a.32.32,0,0,1-.24-.09.25.25,0,0,1-.09-.2.29.29,0,0,1,.09-.21.36.36,0,0,1,.24-.08.31.31,0,0,1,.23.08.25.25,0,0,1,.09.2.27.27,0,0,1-.09.21A.29.29,0,0,1,105.21,22.2Zm-.26,2V22.45h.52v1.78Z"/><path class="cls-1" d="M106,24.23V21.77h.52v2.46Z"/><path class="cls-1" d="M96.24,28.77V26.44h1a1.27,1.27,0,0,1,.54.11.76.76,0,0,1,.35.29.78.78,0,0,1,.12.44.79.79,0,0,1-.12.45.83.83,0,0,1-.35.29,1.27,1.27,0,0,1-.54.1h-.71l.25-.23v.88Zm.55-.83-.25-.25h.68a.56.56,0,0,0,.37-.11.35.35,0,0,0,.13-.3.35.35,0,0,0-.13-.29.56.56,0,0,0-.37-.11h-.68l.25-.25Zm.94.83-.59-.84h.58l.58.84Z"/><path class="cls-1" d="M99.53,28.79a1.25,1.25,0,0,1-.53-.11,1,1,0,0,1-.36-.33.94.94,0,0,1-.12-.47,1,1,0,0,1,.12-.48.83.83,0,0,1,.34-.33,1.1,1.1,0,0,1,.49-.11.93.93,0,0,1,.47.11.78.78,0,0,1,.33.32.85.85,0,0,1,.13.49.2.2,0,0,1,0,.07V28H98.94v-.3h1.17l-.2.09a.47.47,0,0,0,0-.24.35.35,0,0,0-.16-.16.47.47,0,0,0-.46,0,.35.35,0,0,0-.16.16.49.49,0,0,0-.06.25v.07a.44.44,0,0,0,.07.26.37.37,0,0,0,.18.17.61.61,0,0,0,.28.06.66.66,0,0,0,.25,0,.5.5,0,0,0,.19-.13l.28.3a.77.77,0,0,1-.31.21A1.14,1.14,0,0,1,99.53,28.79Z"/><path class="cls-1" d="M101.34,28.79a1.61,1.61,0,0,1-.44-.05,1,1,0,0,1-.33-.14l.17-.37a1.1,1.1,0,0,0,.29.12,1,1,0,0,0,.33,0,.56.56,0,0,0,.26,0,.13.13,0,0,0,.07-.12.1.1,0,0,0-.06-.09.33.33,0,0,0-.15,0l-.21,0L101,28a.67.67,0,0,1-.21-.09.33.33,0,0,1-.16-.15.44.44,0,0,1-.06-.25.54.54,0,0,1,.1-.3A.75.75,0,0,1,101,27a1.18,1.18,0,0,1,.45-.07,1.61,1.61,0,0,1,.37,0,1,1,0,0,1,.32.11l-.18.37a.93.93,0,0,0-.26-.1,1.07,1.07,0,0,0-.25,0,.59.59,0,0,0-.26,0,.17.17,0,0,0-.08.12.1.1,0,0,0,.06.1.49.49,0,0,0,.16.06l.21,0,.23.05a.66.66,0,0,1,.21.08.46.46,0,0,1,.16.15.5.5,0,0,1,0,.54.69.69,0,0,1-.29.2A1.27,1.27,0,0,1,101.34,28.79Z"/><path class="cls-1" d="M102.76,26.73a.3.3,0,0,1-.23-.08.26.26,0,0,1-.09-.21.25.25,0,0,1,.09-.2.3.3,0,0,1,.23-.08.36.36,0,0,1,.24.07.27.27,0,0,1,.09.2.29.29,0,0,1-.09.22A.32.32,0,0,1,102.76,26.73Zm-.26,2V27H103v1.79Z"/><path class="cls-1" d="M104.1,28.79a1.61,1.61,0,0,1-.44-.05,1.13,1.13,0,0,1-.33-.14l.17-.37a1.1,1.1,0,0,0,.29.12,1,1,0,0,0,.33,0,.56.56,0,0,0,.26,0,.13.13,0,0,0,.07-.12.1.1,0,0,0-.06-.09.33.33,0,0,0-.15,0l-.21,0-.23,0a.67.67,0,0,1-.21-.09.33.33,0,0,1-.16-.15.44.44,0,0,1-.06-.25.54.54,0,0,1,.1-.3.75.75,0,0,1,.28-.2,1.22,1.22,0,0,1,.45-.07,1.61,1.61,0,0,1,.37,0,1,1,0,0,1,.32.11l-.18.37a.82.82,0,0,0-.26-.1,1.07,1.07,0,0,0-.25,0,.59.59,0,0,0-.26,0,.17.17,0,0,0-.08.12.1.1,0,0,0,.06.1.59.59,0,0,0,.16.06l.21,0,.23.05a.66.66,0,0,1,.21.08.46.46,0,0,1,.16.15.5.5,0,0,1,0,.54.69.69,0,0,1-.29.2A1.27,1.27,0,0,1,104.1,28.79Z"/><path class="cls-1" d="M105.05,27.42V27h1.24v.4Zm.94,1.37a.69.69,0,0,1-.49-.16.62.62,0,0,1-.17-.48V26.59h.52v1.55a.24.24,0,0,0,.06.18.19.19,0,0,0,.15.06.38.38,0,0,0,.22-.06l.13.36a.48.48,0,0,1-.19.09A.86.86,0,0,1,106,28.79Z"/><path class="cls-1" d="M107.26,28.79a.8.8,0,0,1-.36-.07.54.54,0,0,1-.23-.19.51.51,0,0,1-.08-.28.5.5,0,0,1,.08-.27.45.45,0,0,1,.25-.19,1.1,1.1,0,0,1,.44-.07h.47V28h-.42a.4.4,0,0,0-.25.06.2.2,0,0,0-.06.15.19.19,0,0,0,.07.16.38.38,0,0,0,.22.06.46.46,0,0,0,.23-.06.32.32,0,0,0,.15-.19l.08.25a.47.47,0,0,1-.21.25A.71.71,0,0,1,107.26,28.79Zm.54,0v-.35l0-.08v-.62a.33.33,0,0,0-.1-.26.46.46,0,0,0-.31-.09.86.86,0,0,0-.28,0,.9.9,0,0,0-.24.12l-.18-.36A1.13,1.13,0,0,1,107,27a1.51,1.51,0,0,1,.42-.05.93.93,0,0,1,.63.19.75.75,0,0,1,.23.6v1Z"/><path class="cls-1" d="M109.84,27a.79.79,0,0,1,.38.08.59.59,0,0,1,.26.26.86.86,0,0,1,.1.45v1h-.52v-.94a.47.47,0,0,0-.09-.32.35.35,0,0,0-.27-.11.43.43,0,0,0-.22.06.28.28,0,0,0-.15.15.55.55,0,0,0-.06.28v.88h-.51V27h.49v.5l-.09-.15a.66.66,0,0,1,.27-.28A.91.91,0,0,1,109.84,27Z"/><path class="cls-1" d="M110.84,27.42V27h1.23v.4Zm.94,1.37a.67.67,0,0,1-.49-.16.59.59,0,0,1-.18-.48V26.59h.52v1.55a.24.24,0,0,0,.06.18.21.21,0,0,0,.16.06.37.37,0,0,0,.21-.06l.14.36a.56.56,0,0,1-.19.09A.86.86,0,0,1,111.78,28.79Z"/><path class="cls-1" d="M127.23,11.8h5l-4.69-6.33h4.22L129,.63h7.42V19.07H117.93V.63h5.94L125.27,3h-4.69L125,9.15h-3.13l8.76,9.06Zm-9.85,7.9H137V0H117.38Z"/><path class="cls-1" d="M118.52,24.23l1-2.32h.53l1,2.32h-.57l-.85-2.05h.22l-.86,2.05Zm.52-.5.14-.41h1.2l.14.41Z"/><path class="cls-1" d="M122.42,22.42a.92.92,0,0,1,.38.08.65.65,0,0,1,.26.26.88.88,0,0,1,.1.45v1h-.52v-.94a.47.47,0,0,0-.09-.32.35.35,0,0,0-.27-.1.51.51,0,0,0-.22.05.33.33,0,0,0-.15.16.51.51,0,0,0-.06.27v.88h-.52V22.45h.5v.49l-.09-.15a.59.59,0,0,1,.27-.27A.8.8,0,0,1,122.42,22.42Z"/><path class="cls-1" d="M123.41,22.88v-.39h1.24v.39Zm1,1.38a.72.72,0,0,1-.49-.16.62.62,0,0,1-.18-.48V22.05h.52v1.56a.24.24,0,0,0,.06.17.22.22,0,0,0,.16.07.38.38,0,0,0,.21-.07l.14.36a.66.66,0,0,1-.19.09A.91.91,0,0,1,124.36,24.26Z"/><path class="cls-1" d="M125.33,22.2a.32.32,0,0,1-.24-.09.25.25,0,0,1-.09-.2.29.29,0,0,1,.09-.21.36.36,0,0,1,.24-.08.31.31,0,0,1,.23.08.25.25,0,0,1,.09.2.3.3,0,0,1-.08.21A.32.32,0,0,1,125.33,22.2Zm-.26,2V22.45h.52v1.78Z"/><path class="cls-1" d="M126,23.5v-.41h.94v.41Z"/><path class="cls-1" d="M128.15,24.27a1.88,1.88,0,0,1-.53-.07,1.37,1.37,0,0,1-.42-.2l.19-.4a1,1,0,0,0,.35.17,1.18,1.18,0,0,0,.41.07.88.88,0,0,0,.26,0,.66.66,0,0,0,.15-.09.2.2,0,0,0,0-.13.18.18,0,0,0-.07-.15,1,1,0,0,0-.2-.09l-.26-.06-.29-.08a1.23,1.23,0,0,1-.26-.12.46.46,0,0,1-.19-.2.56.56,0,0,1-.08-.3.66.66,0,0,1,.11-.36.7.7,0,0,1,.32-.26,1.29,1.29,0,0,1,.55-.1,2,2,0,0,1,.43.05,1.67,1.67,0,0,1,.38.15l-.17.41a1.48,1.48,0,0,0-.32-.14,1.22,1.22,0,0,0-.32,0,.93.93,0,0,0-.26,0,.39.39,0,0,0-.14.1.2.2,0,0,0,0,.13.18.18,0,0,0,.07.15.48.48,0,0,0,.19.09l.27.06.29.08a1.23,1.23,0,0,1,.26.12.5.5,0,0,1,.19.19.56.56,0,0,1,.08.3.66.66,0,0,1-.11.36.74.74,0,0,1-.33.26A1.26,1.26,0,0,1,128.15,24.27Z"/><path class="cls-1" d="M129.26,22.88v-.39h1.23v.39Zm.94,1.38a.72.72,0,0,1-.49-.16.62.62,0,0,1-.18-.48V22.05h.52v1.56a.24.24,0,0,0,.06.17.22.22,0,0,0,.16.07.38.38,0,0,0,.21-.07l.14.36a.56.56,0,0,1-.19.09A.85.85,0,0,1,130.2,24.26Z"/><path class="cls-1" d="M131.46,24.26a.91.91,0,0,1-.35-.07.57.57,0,0,1-.23-.2.43.43,0,0,1-.08-.27.51.51,0,0,1,.07-.28.62.62,0,0,1,.25-.19,1.36,1.36,0,0,1,.45-.06H132v.29h-.42a.38.38,0,0,0-.25.06.18.18,0,0,0-.07.15.19.19,0,0,0,.08.16.33.33,0,0,0,.21.06.48.48,0,0,0,.24-.06.32.32,0,0,0,.14-.18l.08.24a.46.46,0,0,1-.2.26A.75.75,0,0,1,131.46,24.26Zm.55,0v-.35l0-.07v-.63a.34.34,0,0,0-.1-.26.46.46,0,0,0-.31-.09.92.92,0,0,0-.28.05A.68.68,0,0,0,131,23l-.18-.37a1.25,1.25,0,0,1,.35-.16,2,2,0,0,1,.42,0,1,1,0,0,1,.64.19.75.75,0,0,1,.22.6v1Z"/><path class="cls-1" d="M132.75,22.88v-.39H134v.39Zm.94,1.38a.74.74,0,0,1-.49-.16.62.62,0,0,1-.18-.48V22.05h.52v1.56a.24.24,0,0,0,.06.17.22.22,0,0,0,.16.07.38.38,0,0,0,.21-.07l.14.36a.56.56,0,0,1-.19.09A.85.85,0,0,1,133.69,24.26Z"/><path class="cls-1" d="M134.66,22.2a.3.3,0,0,1-.23-.09.25.25,0,0,1-.09-.2.29.29,0,0,1,.09-.21.34.34,0,0,1,.23-.08.33.33,0,0,1,.24.08.25.25,0,0,1,.09.2.27.27,0,0,1-.09.21A.32.32,0,0,1,134.66,22.2Zm-.26,2V22.45h.52v1.78Z"/><path class="cls-1" d="M136.26,24.26a1.07,1.07,0,0,1-.51-.12.86.86,0,0,1-.35-.33.92.92,0,0,1-.13-.47,1,1,0,0,1,.13-.48.91.91,0,0,1,.35-.32,1.07,1.07,0,0,1,.51-.12,1,1,0,0,1,.5.12.68.68,0,0,1,.3.33l-.4.22a.53.53,0,0,0-.17-.19.59.59,0,0,0-.23,0,.56.56,0,0,0-.23,0,.4.4,0,0,0-.17.17.47.47,0,0,0-.07.27.44.44,0,0,0,.07.26.31.31,0,0,0,.17.17.44.44,0,0,0,.23.06.46.46,0,0,0,.23-.06.43.43,0,0,0,.17-.18l.4.22a.68.68,0,0,1-.3.33A1,1,0,0,1,136.26,24.26Z"/><path class="cls-1" d="M141.64,10h6.72a5.66,5.66,0,0,1,8.13,0h2.42a.33.33,0,0,0,.31-.32,4.36,4.36,0,0,0-1.4-3.51c-1.57-1.18-3.6-1.57-6.1-2-.94-.23-1.95-.39-2.89-.62,0,.23-.08.54-.08.78a15.12,15.12,0,0,1-.7,1.8,2.39,2.39,0,0,1-2.35,1.25A6.48,6.48,0,0,1,143.83,7a10,10,0,0,1-2.19-1.41V4.46c0,.07.08.07.08.07a.57.57,0,0,0,.31.32,8.52,8.52,0,0,0,2.11,1.4,10,10,0,0,0,1.56.39,1.63,1.63,0,0,0,1.64-.93A8,8,0,0,0,148,4.14a3.1,3.1,0,0,0,.08-.86,14.82,14.82,0,0,1-1.8-.54l-.94,1.48c-.23.39-.94,0-.62-.47l.86-1.25a8,8,0,0,1-.86-.39l-1,1.17a.39.39,0,1,1-.55-.54l.86-1A11.44,11.44,0,0,1,142.42.63h17.66V19.07H141.64v-6.8h8.44A2.85,2.85,0,0,1,152.42,11a3.1,3.1,0,0,1,2.35,1.25h4.14a.28.28,0,0,0,.31-.31V10.87a.33.33,0,0,0-.31-.32h-3.36a4.5,4.5,0,0,0-3.13-1.25,4.35,4.35,0,0,0-3.12,1.25h-7.66Zm-.55,9.69h19.62V0H141.09ZM156.18,17h-2.35l-.55-2.19-.62-2.42L152,14.77,151.41,17h-2.27a.33.33,0,0,0-.31.31v.79a.33.33,0,0,0,.31.31h7c.15,0,.23-.16.23-.31v-.79C156.41,17.12,156.33,17,156.18,17Z"/><path class="cls-1" d="M147.16,24.31l1-2.32h.53l1,2.32h-.56l-.85-2h.21l-.85,2Zm.52-.5.14-.41H149l.14.41Z"/><path class="cls-1" d="M151.05,22.5a.76.76,0,0,1,.38.08.62.62,0,0,1,.27.26,1,1,0,0,1,.09.45v1h-.51v-.94a.47.47,0,0,0-.1-.32.34.34,0,0,0-.27-.11.43.43,0,0,0-.37.21.56.56,0,0,0,0,.28v.88H150V22.52h.49V23l-.09-.15a.75.75,0,0,1,.28-.28A.87.87,0,0,1,151.05,22.5Z"/><path class="cls-1" d="M152.05,23v-.4h1.24V23Zm.94,1.38a.69.69,0,0,1-.49-.17.59.59,0,0,1-.18-.48V22.13h.53v1.55a.3.3,0,0,0,.05.18.23.23,0,0,0,.16.06.33.33,0,0,0,.21-.06l.14.36a.48.48,0,0,1-.19.09A.85.85,0,0,1,153,24.34Z"/><path class="cls-1" d="M154,22.27a.31.31,0,0,1-.23-.08.25.25,0,0,1-.09-.2.27.27,0,0,1,.09-.21.31.31,0,0,1,.23-.08.36.36,0,0,1,.24.07.27.27,0,0,1,.09.21.29.29,0,0,1-.09.21A.32.32,0,0,1,154,22.27Zm-.25,2V22.52h.51v1.79Z"/><path class="cls-1" d="M154.64,23.58v-.41h.94v.41Z"/><path class="cls-1" d="M141.21,28.84V26.52h1a1.44,1.44,0,0,1,.54.1.76.76,0,0,1,.47.74.79.79,0,0,1-.12.45.84.84,0,0,1-.35.29,1.27,1.27,0,0,1-.54.1h-.71l.25-.24v.88Zm.54-.82-.25-.25h.68a.59.59,0,0,0,.38-.11.44.44,0,0,0,0-.6.59.59,0,0,0-.38-.1h-.68l.25-.26Z"/><path class="cls-1" d="M144.49,28.87a1.13,1.13,0,0,1-.54-.12.86.86,0,0,1-.35-.33.81.81,0,0,1-.13-.47.91.91,0,0,1,.12-.47.83.83,0,0,1,.34-.33,1,1,0,0,1,.49-.12.91.91,0,0,1,.81.43,1,1,0,0,1,.12.5V28a.17.17,0,0,0,0,.07h-1.45v-.3h1.18l-.21.09a.4.4,0,0,0-.05-.25.44.44,0,0,0-.39-.22.44.44,0,0,0-.23.06.41.41,0,0,0-.16.16.51.51,0,0,0-.05.25V28a.53.53,0,0,0,.06.26.58.58,0,0,0,.18.17.61.61,0,0,0,.28.06.62.62,0,0,0,.25-.05.63.63,0,0,0,.2-.13l.27.3a.7.7,0,0,1-.31.22A1.09,1.09,0,0,1,144.49,28.87Z"/><path class="cls-1" d="M146.78,27a.79.79,0,0,1,.38.09.55.55,0,0,1,.26.26.82.82,0,0,1,.1.44v1H147V27.9a.49.49,0,0,0-.09-.32.35.35,0,0,0-.27-.1.51.51,0,0,0-.22.05.33.33,0,0,0-.15.16.54.54,0,0,0-.06.27v.88h-.52V27.06h.5v.49l-.09-.15a.59.59,0,0,1,.27-.27A.8.8,0,0,1,146.78,27Z"/><path class="cls-1" d="M148.87,28.87a1.12,1.12,0,0,1-.53-.12,1,1,0,0,1-.36-.33.89.89,0,0,1-.12-.47.91.91,0,0,1,.12-.47.83.83,0,0,1,.34-.33,1,1,0,0,1,.49-.12,1,1,0,0,1,.47.11.92.92,0,0,1,.33.32.91.91,0,0,1,.13.5s0,0,0,.07v.07h-1.45v-.3h1.17l-.2.09a.49.49,0,0,0-.05-.25.45.45,0,0,0-.78,0,.51.51,0,0,0-.06.25V28a.44.44,0,0,0,.07.26.42.42,0,0,0,.18.17.61.61,0,0,0,.28.06.66.66,0,0,0,.25-.05.5.5,0,0,0,.19-.13l.28.3a.7.7,0,0,1-.31.22A1.14,1.14,0,0,1,148.87,28.87Z"/><path class="cls-1" d="M149.87,27.5v-.4h1.24v.4Zm.94,1.37a.69.69,0,0,1-.49-.16.62.62,0,0,1-.18-.48V26.66h.53v1.56a.32.32,0,0,0,.05.18.23.23,0,0,0,.16.06.28.28,0,0,0,.21-.07l.14.37a.47.47,0,0,1-.19.08A.85.85,0,0,1,150.81,28.87Z"/><path class="cls-1" d="M151.53,28.84V27.06H152v.51l-.07-.15a.59.59,0,0,1,.25-.29.83.83,0,0,1,.43-.1v.48h-.11a.5.5,0,0,0-.35.12A.53.53,0,0,0,152,28v.84Z"/><path class="cls-1" d="M153.51,28.87a.8.8,0,0,1-.36-.07.52.52,0,0,1-.31-.47.46.46,0,0,1,.08-.28.45.45,0,0,1,.24-.18,1.18,1.18,0,0,1,.45-.07h.47v.3h-.42a.4.4,0,0,0-.25.06.21.21,0,0,0-.07.15.18.18,0,0,0,.08.15.33.33,0,0,0,.21.06.48.48,0,0,0,.24-.06.34.34,0,0,0,.15-.18l.08.24a.49.49,0,0,1-.21.26A.74.74,0,0,1,153.51,28.87Zm.54,0V28.5l0-.08V27.8a.35.35,0,0,0-.1-.26.43.43,0,0,0-.31-.1.87.87,0,0,0-.28,0,.67.67,0,0,0-.24.12l-.18-.36a.87.87,0,0,1,.35-.16,1.42,1.42,0,0,1,.42-.06,1,1,0,0,1,.63.19.76.76,0,0,1,.22.61v1Z"/><path class="cls-1" d="M154.79,27.5v-.4H156v.4Zm.94,1.37a.69.69,0,0,1-.49-.16.61.61,0,0,1-.17-.48V26.66h.52v1.56a.32.32,0,0,0,0,.18.23.23,0,0,0,.16.06.28.28,0,0,0,.21-.07l.14.37a.47.47,0,0,1-.19.08A.85.85,0,0,1,155.73,28.87Z"/><path class="cls-1" d="M156.71,26.81a.36.36,0,0,1-.24-.08.29.29,0,0,1-.09-.21.25.25,0,0,1,.09-.2.32.32,0,0,1,.24-.09.36.36,0,0,1,.23.08.25.25,0,0,1,.09.2.26.26,0,0,1-.09.21A.32.32,0,0,1,156.71,26.81Zm-.26,2V27.06H157v1.78Z"/><path class="cls-1" d="M158.29,28.87a1,1,0,0,1-.5-.12.93.93,0,0,1-.35-.33.89.89,0,0,1-.12-.47,1,1,0,0,1,.12-.48,1,1,0,0,1,.35-.32,1,1,0,0,1,.5-.12,1.07,1.07,0,0,1,.51.12,1,1,0,0,1,.35.32,1,1,0,0,1,0,1,1,1,0,0,1-.35.32A1.07,1.07,0,0,1,158.29,28.87Zm0-.42a.48.48,0,0,0,.24-.06.52.52,0,0,0,.16-.17.6.6,0,0,0,.06-.27.53.53,0,0,0-.06-.26.44.44,0,0,0-.16-.17.48.48,0,0,0-.24-.06.46.46,0,0,0-.23.06.38.38,0,0,0-.16.17.53.53,0,0,0-.06.26.6.6,0,0,0,.06.27.44.44,0,0,0,.16.17A.46.46,0,0,0,158.29,28.45Z"/><path class="cls-1" d="M160.7,27a.76.76,0,0,1,.38.09.61.61,0,0,1,.27.26.93.93,0,0,1,.09.44v1h-.51V27.9a.49.49,0,0,0-.1-.32.33.33,0,0,0-.27-.1.54.54,0,0,0-.22.05.46.46,0,0,0-.15.16.54.54,0,0,0-.05.27v.88h-.52V27.06h.49v.49L160,27.4a.61.61,0,0,1,.28-.27A.74.74,0,0,1,160.7,27Z"/><path class="cls-1" d="M144.65,33.38V31.05h.45l1,1.64h-.23l1-1.64h.45v2.33h-.5V31.83h.1l-.79,1.3h-.23l-.8-1.3h.11v1.55Z"/><path class="cls-1" d="M148,31.34a.34.34,0,0,1-.23-.08.29.29,0,0,1-.09-.21.25.25,0,0,1,.09-.2.3.3,0,0,1,.23-.09.36.36,0,0,1,.24.08.25.25,0,0,1,.09.2.29.29,0,0,1-.09.22A.36.36,0,0,1,148,31.34Zm-.26,2V31.59h.52v1.79Z"/><path class="cls-1" d="M149.55,33.4a1,1,0,0,1-.46-.11.86.86,0,0,1-.31-.32,1,1,0,0,1-.12-.49,1,1,0,0,1,.12-.48.74.74,0,0,1,.31-.32.9.9,0,0,1,.46-.12.81.81,0,0,1,.39.1.69.69,0,0,1,.27.31,1.23,1.23,0,0,1,.09.51,1.31,1.31,0,0,1-.09.52.6.6,0,0,1-.26.3A.72.72,0,0,1,149.55,33.4Zm.09-.42a.46.46,0,0,0,.23-.06.44.44,0,0,0,.16-.17.6.6,0,0,0,.06-.27.53.53,0,0,0-.06-.26.38.38,0,0,0-.16-.17.46.46,0,0,0-.23-.06.44.44,0,0,0-.23.06.4.4,0,0,0-.17.17.53.53,0,0,0-.06.26.6.6,0,0,0,.06.27.46.46,0,0,0,.17.17A.44.44,0,0,0,149.64,33Zm.47.4v-.9l0-.53v-1h.52v2.47Z"/><path class="cls-1" d="M151.68,33.4a2.12,2.12,0,0,1-.44,0,1,1,0,0,1-.33-.14l.17-.37a1.1,1.1,0,0,0,.29.12,1.26,1.26,0,0,0,.33,0,.51.51,0,0,0,.25,0,.14.14,0,0,0,.08-.12.11.11,0,0,0-.06-.1l-.15,0-.21,0-.23,0a.85.85,0,0,1-.22-.09.54.54,0,0,1-.15-.15.46.46,0,0,1-.06-.25.47.47,0,0,1,.1-.3.58.58,0,0,1,.28-.2,1.15,1.15,0,0,1,.44-.08,2.45,2.45,0,0,1,.38,0,1.11,1.11,0,0,1,.31.12l-.17.37A1.45,1.45,0,0,0,152,32l-.25,0a.56.56,0,0,0-.26,0,.14.14,0,0,0-.08.12.1.1,0,0,0,.06.1.34.34,0,0,0,.16.05l.21,0,.23,0a1,1,0,0,1,.21.09.31.31,0,0,1,.15.15.46.46,0,0,1,.06.25.45.45,0,0,1-.1.29.67.67,0,0,1-.28.2A1.27,1.27,0,0,1,151.68,33.4Z"/><path class="cls-1" d="M153.69,33.4a1.07,1.07,0,0,1-.51-.12,1,1,0,0,1-.34-.32.86.86,0,0,1-.13-.48.81.81,0,0,1,.13-.47.9.9,0,0,1,.34-.33,1.07,1.07,0,0,1,.51-.12,1,1,0,0,1,.5.12.86.86,0,0,1,.35.33.81.81,0,0,1,.13.47.86.86,0,0,1-.13.48.91.91,0,0,1-.35.32A1,1,0,0,1,153.69,33.4Zm0-.42a.43.43,0,0,0,.39-.23.6.6,0,0,0,.07-.27.53.53,0,0,0-.07-.26.38.38,0,0,0-.16-.17.47.47,0,0,0-.46,0,.4.4,0,0,0-.17.17.53.53,0,0,0-.06.26.6.6,0,0,0,.06.27.46.46,0,0,0,.17.17A.44.44,0,0,0,153.69,33Z"/><path class="cls-1" d="M155,33.38V30.91h.51v2.47Z"/><path class="cls-1" d="M156.9,33.4a1.12,1.12,0,0,1-.53-.12A.87.87,0,0,1,156,33a1,1,0,0,1-.13-.48A.85.85,0,0,1,156,32a.87.87,0,0,1,.33-.33,1,1,0,0,1,.49-.12,1,1,0,0,1,.48.12.82.82,0,0,1,.33.31,1,1,0,0,1,.12.5v.07a.17.17,0,0,1,0,.07H156.3v-.3h1.18l-.2.09a.62.62,0,0,0-.05-.25.49.49,0,0,0-.16-.16.43.43,0,0,0-.23,0,.47.47,0,0,0-.24,0,.52.52,0,0,0-.16.17.6.6,0,0,0-.05.24v.08a.44.44,0,0,0,.07.26.42.42,0,0,0,.18.17.64.64,0,0,0,.52,0,.44.44,0,0,0,.2-.13l.28.3a.77.77,0,0,1-.31.22A1.18,1.18,0,0,1,156.9,33.4Z"/><path class="cls-1" d="M180.28,4a10.83,10.83,0,0,1-1.41,1.79,11.12,11.12,0,0,0-1.64,2,1.92,1.92,0,0,0,1.17,2.42,1.82,1.82,0,0,0,2.27-1.41,6.24,6.24,0,0,0-.24-2.58A14,14,0,0,1,180.28,4Zm2.5,6.33c-1.17-.08-2.35,1.48-3.44.47C180.43,9.93,181.92,10.32,182.78,10.32ZM174.18,7c1.17.79,1,3.05,2.82,3C176.53,8.44,175,7.66,174.18,7Zm1.17,2.82c-.47-.16-.62-.94-1.25-.7A2.36,2.36,0,0,0,175.35,9.85Zm1.57-1.17c-.47-.71,0-2-.94-2.19C175.9,7.43,176.6,8.13,176.92,8.68ZM165,19.7h19.69V0H165Zm.62-3.6h16.26a.33.33,0,0,0,.31-.31c0-5.08-6-5.08-9.77-6a7.21,7.21,0,0,1-.78,2.5c-1.33,2.43-4.53.86-6-.47v-1c.94,1.09,4.22,3.2,5.32,1.09a5.86,5.86,0,0,0,.7-2.34A16.31,16.31,0,0,1,170,9l-.86,1.41c-.23.39-.86,0-.62-.39l.78-1.26c-.24-.15-.55-.23-.78-.39l-.94,1.18c-.32.39-.86-.08-.55-.55l.78-1A6.36,6.36,0,0,1,165.66,6V.63h18.45V19.07H165.66v-.7h16.26c.47,0,.47-1.72,0-1.72H165.66Z"/><path class="cls-1" d="M170.72,24.23,170,21.91h.55l.66,2.06h-.28l.69-2.06h.5l.67,2.06h-.27l.67-2.06h.52l-.76,2.32h-.58l-.59-1.8h.16l-.61,1.8Z"/><path class="cls-1" d="M174.53,24.26a.91.91,0,0,1-.35-.07A.57.57,0,0,1,174,24a.44.44,0,0,1-.09-.27.51.51,0,0,1,.08-.28.55.55,0,0,1,.25-.19,1.33,1.33,0,0,1,.44-.06h.48v.29h-.42a.38.38,0,0,0-.25.06.18.18,0,0,0-.07.15.19.19,0,0,0,.08.16.33.33,0,0,0,.21.06.48.48,0,0,0,.24-.06.37.37,0,0,0,.14-.18l.08.24a.51.51,0,0,1-.2.26A.75.75,0,0,1,174.53,24.26Zm.55,0v-.35l0-.07v-.63a.34.34,0,0,0-.1-.26.46.46,0,0,0-.31-.09.92.92,0,0,0-.28.05.68.68,0,0,0-.24.12l-.18-.37a1.25,1.25,0,0,1,.35-.16,2,2,0,0,1,.42,0,.93.93,0,0,1,.63.19.75.75,0,0,1,.23.6v1Z"/><path class="cls-1" d="M175.82,22.88v-.39h1.23v.39Zm.94,1.38a.72.72,0,0,1-.49-.16.62.62,0,0,1-.18-.48V22.05h.52v1.56a.24.24,0,0,0,.06.17.22.22,0,0,0,.16.07.38.38,0,0,0,.21-.07l.14.36a.56.56,0,0,1-.19.09A.85.85,0,0,1,176.76,24.26Z"/><path class="cls-1" d="M178.36,24.26a1.16,1.16,0,0,1-.54-.12.86.86,0,0,1-.35-.33.83.83,0,0,1-.13-.47,1,1,0,0,1,.12-.48.87.87,0,0,1,.34-.32,1.06,1.06,0,0,1,1,0,.87.87,0,0,1,.34.32,1,1,0,0,1,.12.5v.06s0,.05,0,.07h-1.45v-.3h1.18l-.2.09a.48.48,0,0,0-.06-.24.39.39,0,0,0-.15-.16.48.48,0,0,0-.24-.06.46.46,0,0,0-.23.06.41.41,0,0,0-.16.16.62.62,0,0,0-.05.25v.08a.55.55,0,0,0,.06.26.42.42,0,0,0,.19.16.57.57,0,0,0,.27.06.59.59,0,0,0,.45-.17l.27.3a.81.81,0,0,1-.3.21A1.18,1.18,0,0,1,178.36,24.26Z"/><path class="cls-1" d="M179.57,24.23V22.45h.49V23L180,22.8a.55.55,0,0,1,.26-.28.79.79,0,0,1,.42-.1v.48h-.11a.51.51,0,0,0-.35.12.53.53,0,0,0-.13.38v.84Z"/><path class="cls-1" d="M166.88,28.77V26.44h1a1.44,1.44,0,0,1,.54.1.76.76,0,0,1,.47.74.79.79,0,0,1-.12.45.77.77,0,0,1-.35.29,1.44,1.44,0,0,1-.54.1h-.71l.25-.24v.89Zm.54-.83-.25-.25h.68a.54.54,0,0,0,.37-.11.35.35,0,0,0,.13-.3.34.34,0,0,0-.13-.29.54.54,0,0,0-.37-.11h-.68l.25-.25Zm.94.83-.59-.85h.58l.58.85Z"/><path class="cls-1" d="M170.16,28.79a1.12,1.12,0,0,1-.53-.12.91.91,0,0,1-.35-.32.86.86,0,0,1-.13-.48.94.94,0,0,1,.12-.47.83.83,0,0,1,.34-.33,1,1,0,0,1,.49-.12.94.94,0,0,1,.47.12.78.78,0,0,1,.33.32.85.85,0,0,1,.13.49.2.2,0,0,1,0,.07V28h-1.45v-.3h1.18l-.21.09a.4.4,0,0,0,0-.25.49.49,0,0,0-.16-.16.41.41,0,0,0-.23,0,.4.4,0,0,0-.39.22.48.48,0,0,0-.06.24v.08a.53.53,0,0,0,.07.26.42.42,0,0,0,.18.17.61.61,0,0,0,.28.06.66.66,0,0,0,.25-.05.59.59,0,0,0,.2-.12l.27.29a.7.7,0,0,1-.31.22A1.11,1.11,0,0,1,170.16,28.79Z"/><path class="cls-1" d="M171.37,29.41V27h.5v.9l0,.52v1Zm1-.62a.76.76,0,0,1-.39-.1.6.6,0,0,1-.26-.3,1.3,1.3,0,0,1-.1-.52,1.23,1.23,0,0,1,.09-.51.67.67,0,0,1,.26-.31.9.9,0,0,1,.86,0,.82.82,0,0,1,.32.32,1,1,0,0,1,.12.48,1,1,0,0,1-.12.49.89.89,0,0,1-.32.32A1,1,0,0,1,172.42,28.79Zm-.08-.42a.46.46,0,0,0,.23-.06.44.44,0,0,0,.16-.17.6.6,0,0,0,.06-.27.53.53,0,0,0-.06-.26.38.38,0,0,0-.16-.17.46.46,0,0,0-.23-.06.41.41,0,0,0-.23.06.4.4,0,0,0-.17.17.53.53,0,0,0-.06.26.6.6,0,0,0,.06.27.46.46,0,0,0,.17.17A.41.41,0,0,0,172.34,28.37Z"/><path class="cls-1" d="M174.55,28.79a1.19,1.19,0,0,1-.54-.12.91.91,0,0,1-.35-.32.86.86,0,0,1-.13-.48.94.94,0,0,1,.12-.47.9.9,0,0,1,.34-.33,1,1,0,0,1,.49-.12.91.91,0,0,1,.47.12.75.75,0,0,1,.34.32.94.94,0,0,1,.12.49V28s0,.05,0,.07H174v-.3h1.18l-.2.09a.49.49,0,0,0-.06-.25.46.46,0,0,0-.15-.16.47.47,0,0,0-.24,0,.46.46,0,0,0-.23,0,.44.44,0,0,0-.16.17.6.6,0,0,0-.05.24v.08a.53.53,0,0,0,.06.26.52.52,0,0,0,.19.17.58.58,0,0,0,.28.06.6.6,0,0,0,.24-.05.59.59,0,0,0,.2-.12l.27.29a.73.73,0,0,1-.3.22A1.18,1.18,0,0,1,174.55,28.79Z"/><path class="cls-1" d="M175.76,28.77V26.3h.51v2.47Z"/><path class="cls-1" d="M176.76,28.77V26.3h.51v2.47Z"/><path class="cls-1" d="M178.3,28.79a.78.78,0,0,1-.35-.07.55.55,0,0,1-.23-.19.46.46,0,0,1-.08-.28.48.48,0,0,1,.08-.28.45.45,0,0,1,.24-.18,1.12,1.12,0,0,1,.45-.07h.47V28h-.42a.38.38,0,0,0-.25.06.18.18,0,0,0-.07.15.21.21,0,0,0,.08.16.33.33,0,0,0,.21.05.48.48,0,0,0,.24-.06.34.34,0,0,0,.15-.18l.08.24a.46.46,0,0,1-.21.26A.75.75,0,0,1,178.3,28.79Zm.55,0v-.35l0-.08v-.62a.33.33,0,0,0-.11-.26.44.44,0,0,0-.31-.09,1,1,0,0,0-.28,0,.71.71,0,0,0-.23.12l-.19-.36a1.19,1.19,0,0,1,.36-.16,1.4,1.4,0,0,1,.41-.06.94.94,0,0,1,.64.2.72.72,0,0,1,.22.6v1Z"/><path class="cls-1" d="M180.89,27a.82.82,0,0,1,.38.09.59.59,0,0,1,.26.26.92.92,0,0,1,.1.44v1h-.52v-.95a.4.4,0,0,0-.1-.31.33.33,0,0,0-.26-.11.38.38,0,0,0-.22.06.33.33,0,0,0-.16.15.68.68,0,0,0-.05.27v.89h-.52V27h.5v.49l-.1-.14a.69.69,0,0,1,.28-.28A.89.89,0,0,1,180.89,27Z"/><path class="cls-1" d="M181.88,27.42V27h1.24v.4Zm.94,1.37a.69.69,0,0,1-.49-.16.65.65,0,0,1-.17-.48V26.59h.52v1.55a.24.24,0,0,0,.06.18.2.2,0,0,0,.15.06.32.32,0,0,0,.22-.07l.13.37a.37.37,0,0,1-.19.08A.85.85,0,0,1,182.82,28.79Z"/><path class="cls-1" d="M171,33.34a1,1,0,0,1-.77-.28,1,1,0,0,1-.28-.79V31h.54v1.29a.66.66,0,0,0,.14.47.56.56,0,0,0,.76,0,.66.66,0,0,0,.13-.47V31H172v1.3a1,1,0,0,1-.28.79A1,1,0,0,1,171,33.34Z"/><path class="cls-1" d="M172.5,33.94V31.51H173v.9l0,.53v1Zm1.05-.62a.71.71,0,0,1-.39-.1.6.6,0,0,1-.26-.3,1.15,1.15,0,0,1-.1-.52,1.23,1.23,0,0,1,.09-.51.6.6,0,0,1,.26-.3.77.77,0,0,1,.4-.1.85.85,0,0,1,.78.43,1,1,0,0,1,.11.48,1,1,0,0,1-.11.49.85.85,0,0,1-.78.43Zm-.08-.42a.46.46,0,0,0,.23-.06.52.52,0,0,0,.16-.17.57.57,0,0,0,.06-.27.48.48,0,0,0-.22-.43.46.46,0,0,0-.23-.06.48.48,0,0,0-.24.06.44.44,0,0,0-.16.17.53.53,0,0,0-.06.26.57.57,0,0,0,.06.27.44.44,0,0,0,.16.17A.48.48,0,0,0,173.47,32.9Z"/><path class="cls-1" d="M174.79,33.94V31.51h.49v.9l0,.53v1Zm1.05-.62a.71.71,0,0,1-.39-.1.6.6,0,0,1-.26-.3,1.15,1.15,0,0,1-.1-.52,1.23,1.23,0,0,1,.09-.51.6.6,0,0,1,.26-.3.77.77,0,0,1,.4-.1.85.85,0,0,1,.78.43,1.06,1.06,0,0,1,.11.48,1.07,1.07,0,0,1-.11.49.85.85,0,0,1-.78.43Zm-.08-.42a.46.46,0,0,0,.23-.06.52.52,0,0,0,.16-.17.57.57,0,0,0,.06-.27A.48.48,0,0,0,176,32a.46.46,0,0,0-.23-.06.48.48,0,0,0-.24.06.44.44,0,0,0-.16.17.53.53,0,0,0-.06.26.57.57,0,0,0,.06.27.44.44,0,0,0,.16.17A.48.48,0,0,0,175.76,32.9Z"/><path class="cls-1" d="M178,33.32a1.13,1.13,0,0,1-.54-.12.84.84,0,0,1-.35-.32.86.86,0,0,1-.13-.48.94.94,0,0,1,.12-.47.83.83,0,0,1,.34-.33,1,1,0,0,1,.49-.11.93.93,0,0,1,.47.11.87.87,0,0,1,.34.32.94.94,0,0,1,.12.49.2.2,0,0,1,0,.07v.07h-1.45v-.3h1.18l-.21.09a.37.37,0,0,0-.05-.24.44.44,0,0,0-.16-.17.52.52,0,0,0-.23-.05.56.56,0,0,0-.23.05.44.44,0,0,0-.16.17.49.49,0,0,0-.06.25v.07a.53.53,0,0,0,.07.26.48.48,0,0,0,.18.17.61.61,0,0,0,.28.06.93.93,0,0,0,.25,0,.86.86,0,0,0,.2-.13l.27.3a.77.77,0,0,1-.31.21A1.09,1.09,0,0,1,178,33.32Z"/><path class="cls-1" d="M179.17,33.3V31.51h.5V32l-.07-.15a.59.59,0,0,1,.25-.29.94.94,0,0,1,.43-.09V32h-.11a.45.45,0,0,0-.48.5v.85Z"/></g></g></svg>